<?xml version="1.0" encoding="UTF-8" standalone="no"?>
<svg
   xmlns:dc="http://purl.org/dc/elements/1.1/"
   xmlns:cc="http://creativecommons.org/ns#"
   xmlns:rdf="http://www.w3.org/1999/02/22-rdf-syntax-ns#"
   xmlns:svg="http://www.w3.org/2000/svg"
   xmlns="http://www.w3.org/2000/svg"
   xmlns:sodipodi="http://sodipodi.sourceforge.net/DTD/sodipodi-0.dtd"
   xmlns:inkscape="http://www.inkscape.org/namespaces/inkscape"
   inkscape:version="1.0 (4035a4fb49, 2020-05-01)"
   sodipodi:docname="avadata-logo-whitesmoke.svg"
   viewBox="0 0 852.19774 218.13191"
   height="218.13191"
   width="852.19775"
   xml:space="preserve"
   id="svg2"
   version="1.1"><metadata
     id="metadata8"><rdf:RDF><cc:Work
         rdf:about=""><dc:format>image/svg+xml</dc:format><dc:type
           rdf:resource="http://purl.org/dc/dcmitype/StillImage" /><dc:title></dc:title></cc:Work></rdf:RDF></metadata><defs
     id="defs6"><clipPath
       id="clipPath32"
       clipPathUnits="userSpaceOnUse"><path
         id="path30"
         d="M 0,800 H 1280 V 0 H 0 Z" /></clipPath></defs><sodipodi:namedview
     inkscape:current-layer="g10"
     inkscape:window-maximized="1"
     inkscape:window-y="-8"
     inkscape:window-x="3192"
     inkscape:cy="234.27935"
     inkscape:cx="398.07313"
     inkscape:zoom="0.63867184"
     fit-margin-bottom="0"
     fit-margin-right="0"
     fit-margin-left="0"
     fit-margin-top="0"
     showgrid="false"
     id="namedview4"
     inkscape:window-height="1017"
     inkscape:window-width="1920"
     inkscape:pageshadow="2"
     inkscape:pageopacity="0"
     guidetolerance="10"
     gridtolerance="10"
     objecttolerance="10"
     borderopacity="1"
     bordercolor="#666666"
     pagecolor="#ffffff" /><g
     transform="matrix(1.3333333,0,0,-1.3333333,-427.23423,642.39936)"
     inkscape:label="AvaDataLogo"
     inkscape:groupmode="layer"
     id="g10"><g
       style="fill:#f5f5f5;fill-opacity:1"
       transform="translate(552.1552,379.4287)"
       id="g14"><path
         id="path16"
         style="fill:#f5f5f5;fill-opacity:1;fill-rule:nonzero;stroke:none"
         d="M 0,0 H -15.518 L -22.61,13.861 -39.511,47.063 -56.412,13.861 -63.504,0 h -15.518 l 7.045,13.861 32.466,63.687 32.466,-63.687 z" /></g><g
       style="fill:#f5f5f5;fill-opacity:1"
       transform="translate(609.7607,456.9547)"
       id="g18"><path
         id="path20"
         style="fill:#f5f5f5;fill-opacity:1;fill-rule:nonzero;stroke:none"
         d="M 0,0 -7.045,-13.861 -39.511,-77.549 -71.977,-13.861 -79.022,0 h 15.518 l 7.092,-13.861 16.901,-33.201 16.901,33.201 L -15.518,0 Z" /></g><g
       style="fill:#f5f5f5;fill-opacity:1"
       transform="translate(667.3677,379.4257)"
       id="g22"><path
         id="path24"
         style="fill:#f5f5f5;fill-opacity:1;fill-rule:nonzero;stroke:none"
         d="M 0,0 H -15.518 L -22.61,13.861 -39.511,47.063 -56.412,13.861 -63.504,0 h -15.518 l 7.045,13.861 32.466,63.687 32.466,-63.687 z" /></g><g
       style="fill:#f5f5f5;fill-opacity:1"
       id="g26"><g
         style="fill:#f5f5f5;fill-opacity:1"
         clip-path="url(#clipPath32)"
         id="g28"><g
           style="fill:#f5f5f5;fill-opacity:1"
           transform="translate(687.9039,393.2461)"
           id="g34"><path
             id="path36"
             style="fill:#f5f5f5;fill-opacity:1;fill-rule:nonzero;stroke:none"
             d="m 0,0 h 24.96 c 13.723,0 24.913,11.19 24.913,24.96 0,13.723 -11.19,24.913 -24.913,24.913 L 0,49.873 Z M 24.96,63.688 C 46.327,63.688 63.688,46.374 63.688,24.96 63.688,15.473 60.28,6.725 54.524,0 53.832,-0.829 53.097,-1.656 52.313,-2.44 45.314,-9.486 35.643,-13.814 24.96,-13.814 h -38.774 v 77.502 z" /></g><g
           style="fill:#f5f5f5;fill-opacity:1"
           transform="translate(827.5553,379.4257)"
           id="g38"><path
             id="path40"
             style="fill:#f5f5f5;fill-opacity:1;fill-rule:nonzero;stroke:none"
             d="M 0,0 H -15.519 L -22.61,13.861 -39.511,47.063 -56.412,13.861 -63.503,0 h -15.519 l 7.046,13.861 32.465,63.687 32.465,-63.687 z" /></g><g
           style="fill:#f5f5f5;fill-opacity:1"
           transform="translate(889.848,456.9095)"
           id="g42"><path
             id="path44"
             style="fill:#f5f5f5;fill-opacity:1;fill-rule:nonzero;stroke:none"
             d="m 0,0 v -13.829 h -31.838 v -63.679 h -13.83 v 63.679 H -77.506 V 0 Z" /></g><g
           style="fill:#f5f5f5;fill-opacity:1"
           transform="translate(515.7957,354.6214)"
           id="g46"><path
             id="path48"
             style="fill:#f5f5f5;fill-opacity:1;fill-rule:nonzero;stroke:none"
             d="m 0,0 c 0.209,-0.526 0.59,-1.005 1.141,-1.439 0.551,-0.433 1.311,-0.828 2.282,-1.182 0.97,-0.354 2.217,-0.69 3.738,-1.005 3.069,-0.683 5.332,-1.628 6.787,-2.837 1.456,-1.208 2.184,-2.877 2.184,-5.005 0,-1.181 -0.233,-2.259 -0.7,-3.231 -0.465,-0.972 -1.109,-1.8 -1.927,-2.482 -0.82,-0.683 -1.806,-1.209 -2.96,-1.577 -1.155,-0.367 -2.414,-0.551 -3.777,-0.551 -2.204,0 -4.217,0.355 -6.04,1.067 -1.824,0.71 -3.561,1.81 -5.213,3.3 l 1.927,2.282 c 1.443,-1.313 2.899,-2.289 4.368,-2.931 1.469,-0.644 3.161,-0.965 5.075,-0.965 1.863,0 3.351,0.434 4.467,1.301 1.114,0.866 1.672,2.01 1.672,3.429 0,0.657 -0.106,1.24 -0.316,1.754 -0.21,0.511 -0.579,0.978 -1.105,1.398 -0.526,0.421 -1.255,0.801 -2.188,1.143 -0.934,0.342 -2.123,0.671 -3.57,0.986 -1.578,0.34 -2.951,0.735 -4.121,1.181 -1.171,0.446 -2.137,0.986 -2.9,1.616 -0.762,0.63 -1.327,1.365 -1.695,2.206 -0.369,0.841 -0.552,1.84 -0.552,2.996 0,1.102 0.223,2.113 0.669,3.034 0.445,0.92 1.075,1.714 1.888,2.384 0.813,0.67 1.771,1.196 2.873,1.577 1.101,0.38 2.307,0.571 3.619,0.571 2.02,0 3.784,-0.279 5.292,-0.835 1.509,-0.554 2.971,-1.392 4.388,-2.509 L 13.496,3.275 C 12.21,4.324 10.918,5.085 9.62,5.557 8.322,6.03 6.964,6.265 5.548,6.265 4.656,6.265 3.849,6.148 3.128,5.911 2.406,5.674 1.79,5.359 1.279,4.964 0.767,4.571 0.374,4.098 0.098,3.546 -0.177,2.995 -0.315,2.404 -0.315,1.774 -0.315,1.117 -0.21,0.524 0,0" /></g><g
           style="fill:#f5f5f5;fill-opacity:1"
           transform="translate(580.7764,353.8829)"
           id="g50"><path
             id="path52"
             style="fill:#f5f5f5;fill-opacity:1;fill-rule:nonzero;stroke:none"
             d="m 0,0 c -0.538,1.391 -1.292,2.597 -2.262,3.62 -0.971,1.023 -2.118,1.836 -3.443,2.44 -1.325,0.603 -2.774,0.904 -4.348,0.904 -1.574,0 -3.024,-0.293 -4.348,-0.884 -1.324,-0.591 -2.458,-1.397 -3.403,-2.421 -0.945,-1.022 -1.686,-2.223 -2.224,-3.599 -0.537,-1.377 -0.806,-2.853 -0.806,-4.426 0,-1.575 0.269,-3.057 0.806,-4.448 0.538,-1.389 1.293,-2.596 2.263,-3.618 0.97,-1.024 2.118,-1.838 3.443,-2.44 1.325,-0.605 2.774,-0.905 4.348,-0.905 1.574,0 3.023,0.294 4.348,0.885 1.324,0.591 2.459,1.397 3.403,2.421 0.944,1.021 1.685,2.222 2.223,3.599 0.537,1.377 0.807,2.853 0.807,4.426 C 0.807,-2.871 0.537,-1.39 0,0 m 3.01,-9.816 c -0.682,-1.718 -1.639,-3.234 -2.872,-4.545 -1.234,-1.312 -2.715,-2.355 -4.446,-3.128 -1.732,-0.773 -3.647,-1.16 -5.745,-1.16 -2.099,0 -4.007,0.38 -5.724,1.141 -1.719,0.759 -3.195,1.79 -4.428,3.088 -1.232,1.299 -2.183,2.806 -2.852,4.526 -0.669,1.716 -1.003,3.534 -1.003,5.448 0,1.916 0.341,3.732 1.023,5.45 0.682,1.718 1.639,3.233 2.872,4.544 1.232,1.312 2.715,2.354 4.446,3.129 1.731,0.773 3.646,1.16 5.745,1.16 2.098,0 4.007,-0.38 5.725,-1.141 C -2.531,7.935 -1.056,6.906 0.177,5.608 1.41,4.309 2.361,2.8 3.03,1.082 c 0.668,-1.718 1.003,-3.534 1.003,-5.448 0,-1.916 -0.341,-3.733 -1.023,-5.45" /></g><g
           style="fill:#f5f5f5;fill-opacity:1"
           transform="translate(611.0531,363.2482)"
           id="g54"><path
             id="path56"
             style="fill:#f5f5f5;fill-opacity:1;fill-rule:nonzero;stroke:none"
             d="m 0,0 h 3.108 v -24.67 h 15.503 v -2.873 H 0 Z" /></g><g
           style="fill:#f5f5f5;fill-opacity:1"
           transform="translate(676.8008,347.47)"
           id="g58"><path
             id="path60"
             style="fill:#f5f5f5;fill-opacity:1;fill-rule:nonzero;stroke:none"
             d="m 0,0 c 0,-2.02 -0.275,-3.79 -0.826,-5.311 -0.551,-1.522 -1.331,-2.794 -2.341,-3.818 -1.01,-1.023 -2.217,-1.79 -3.62,-2.301 -1.403,-0.511 -2.971,-0.767 -4.702,-0.767 -1.705,0 -3.26,0.256 -4.662,0.767 -1.404,0.511 -2.61,1.272 -3.62,2.282 -1.01,1.009 -1.791,2.262 -2.342,3.757 -0.55,1.495 -0.825,3.213 -0.825,5.154 v 16.015 h 3.108 V -0.039 c 0,-2.99 0.741,-5.286 2.223,-6.886 1.482,-1.601 3.547,-2.4 6.197,-2.4 2.544,0 4.564,0.76 6.059,2.282 1.496,1.521 2.243,3.791 2.243,6.806 V 15.778 H 0 Z" /></g><g
           style="fill:#f5f5f5;fill-opacity:1"
           transform="translate(714.2191,335.7054)"
           id="g62"><path
             id="path64"
             style="fill:#f5f5f5;fill-opacity:1;fill-rule:nonzero;stroke:none"
             d="m 0,0 h -3.108 v 24.67 h -9.247 v 2.873 H 9.246 V 24.67 H 0 Z" /></g><path
           id="path66"
           style="fill:#f5f5f5;fill-opacity:1;fill-rule:nonzero;stroke:none"
           d="m 752.386,335.705 h -3.109 v 27.543 h 3.109 z" /><g
           style="fill:#f5f5f5;fill-opacity:1"
           transform="translate(802.965,353.8829)"
           id="g68"><path
             id="path70"
             style="fill:#f5f5f5;fill-opacity:1;fill-rule:nonzero;stroke:none"
             d="m 0,0 c -0.538,1.391 -1.293,2.597 -2.264,3.62 -0.97,1.023 -2.117,1.836 -3.442,2.44 -1.325,0.603 -2.773,0.904 -4.348,0.904 -1.574,0 -3.023,-0.293 -4.347,-0.884 -1.326,-0.591 -2.459,-1.397 -3.404,-2.421 -0.944,-1.022 -1.685,-2.223 -2.223,-3.599 -0.538,-1.377 -0.807,-2.853 -0.807,-4.426 0,-1.575 0.269,-3.057 0.807,-4.448 0.538,-1.389 1.291,-2.596 2.262,-3.618 0.971,-1.024 2.119,-1.838 3.444,-2.44 1.323,-0.605 2.773,-0.905 4.348,-0.905 1.573,0 3.022,0.294 4.346,0.885 1.325,0.591 2.46,1.397 3.405,2.421 0.943,1.021 1.685,2.222 2.223,3.599 0.536,1.377 0.806,2.853 0.806,4.426 C 0.806,-2.871 0.536,-1.39 0,0 m 3.01,-9.816 c -0.683,-1.718 -1.64,-3.234 -2.873,-4.545 -1.233,-1.312 -2.714,-2.355 -4.446,-3.128 -1.732,-0.773 -3.646,-1.16 -5.745,-1.16 -2.098,0 -4.006,0.38 -5.724,1.141 -1.718,0.759 -3.194,1.79 -4.427,3.088 -1.234,1.299 -2.183,2.806 -2.853,4.526 -0.669,1.716 -1.003,3.534 -1.003,5.448 0,1.916 0.34,3.732 1.023,5.45 0.681,1.718 1.64,3.233 2.873,4.544 1.232,1.312 2.714,2.354 4.446,3.129 1.731,0.773 3.645,1.16 5.745,1.16 2.098,0 4.006,-0.38 5.724,-1.141 C -2.532,7.935 -1.057,6.906 0.176,5.608 1.409,4.309 2.36,2.8 3.029,1.082 c 0.669,-1.718 1.004,-3.534 1.004,-5.448 0,-1.916 -0.342,-3.733 -1.023,-5.45" /></g><g
           style="fill:#f5f5f5;fill-opacity:1"
           transform="translate(853.5051,363.2482)"
           id="g72"><path
             id="path74"
             style="fill:#f5f5f5;fill-opacity:1;fill-rule:nonzero;stroke:none"
             d="M 0,0 H 3.029 V -27.543 H 0.55 l -17.784,22.585 v -22.585 h -3.029 V 0 h 2.91 L 0,-22.073 Z" /></g><g
           style="fill:#f5f5f5;fill-opacity:1"
           transform="translate(886.7131,354.6214)"
           id="g76"><path
             id="path78"
             style="fill:#f5f5f5;fill-opacity:1;fill-rule:nonzero;stroke:none"
             d="m 0,0 c 0.209,-0.526 0.591,-1.005 1.141,-1.439 0.552,-0.433 1.311,-0.828 2.282,-1.182 0.97,-0.354 2.217,-0.69 3.737,-1.005 3.07,-0.683 5.333,-1.628 6.788,-2.837 1.456,-1.208 2.184,-2.877 2.184,-5.005 0,-1.181 -0.233,-2.259 -0.699,-3.231 -0.467,-0.972 -1.109,-1.8 -1.929,-2.482 -0.819,-0.683 -1.806,-1.209 -2.959,-1.577 -1.154,-0.367 -2.414,-0.551 -3.778,-0.551 -2.203,0 -4.217,0.355 -6.039,1.067 -1.824,0.71 -3.561,1.81 -5.213,3.3 l 1.927,2.282 c 1.443,-1.313 2.899,-2.289 4.368,-2.931 1.468,-0.644 3.161,-0.965 5.076,-0.965 1.861,0 3.35,0.434 4.466,1.301 1.113,0.866 1.671,2.01 1.671,3.429 0,0.657 -0.104,1.24 -0.315,1.754 -0.209,0.511 -0.579,0.978 -1.105,1.398 -0.526,0.421 -1.255,0.801 -2.188,1.143 -0.933,0.342 -2.123,0.671 -3.57,0.986 -1.577,0.34 -2.951,0.735 -4.121,1.181 -1.171,0.446 -2.137,0.986 -2.9,1.616 -0.762,0.63 -1.327,1.365 -1.695,2.206 -0.368,0.841 -0.552,1.84 -0.552,2.996 0,1.102 0.222,2.113 0.668,3.034 0.446,0.92 1.076,1.714 1.89,2.384 0.812,0.67 1.769,1.196 2.871,1.577 1.102,0.38 2.309,0.571 3.62,0.571 2.02,0 3.785,-0.279 5.293,-0.835 1.507,-0.554 2.971,-1.392 4.387,-2.509 L 13.496,3.275 C 12.211,4.324 10.919,5.085 9.62,5.557 8.322,6.03 6.964,6.265 5.548,6.265 4.656,6.265 3.849,6.148 3.127,5.911 2.407,5.674 1.79,5.359 1.278,4.964 0.767,4.571 0.374,4.098 0.098,3.546 -0.178,2.995 -0.315,2.404 -0.315,1.774 -0.315,1.117 -0.211,0.524 0,0" /></g><g
           style="fill:#f5f5f5;fill-opacity:1"
           transform="translate(389.1033,465.8166)"
           id="g80"><path
             id="path82"
             style="fill:#f5f5f5;fill-opacity:1;fill-rule:nonzero;stroke:none"
             d="m 0,0 c -28.26,0.341 -53.054,-23.988 -52.405,-53.142 0.665,-29.851 23.324,-52.414 53.947,-52.408 27.504,0.006 52.061,24.56 51.541,52.739 C 52.522,-22.408 28.676,0.155 0,0 m 0.107,-142.347 c -5.419,4.461 -10.363,8.479 -15.248,12.565 -9.855,8.241 -19.944,16.227 -29.461,24.844 -20.387,18.461 -28.396,41.487 -21.833,68.284 6.548,26.737 23.949,44.361 50.71,50.687 39.545,9.348 76.411,-15.9 83.453,-54.65 3.001,-16.512 0.554,-32.845 -8.643,-47.552 -1.337,-2.139 -2.544,-4.359 -4.184,-7.182 1.953,-1.412 3.466,-3.421 5.079,-3.504 5.285,-0.274 8.28,-3.706 11.436,-7.089 6.84,-7.331 13.672,-14.67 20.48,-22.029 2.693,-2.911 5.41,-6.225 3.35,-10.278 -2.358,-4.639 -5.962,-8.736 -11.487,-9.34 -2.153,-0.236 -5.126,1.234 -6.746,2.888 -8.633,8.813 -17.063,17.834 -25.293,27.025 -1.573,1.758 -1.946,4.595 -2.857,6.94 -0.683,1.757 -1.341,3.525 -2.606,6.858 -15.946,-13.291 -30.835,-25.702 -46.15,-38.467" /></g><g
           style="fill:#f5f5f5;fill-opacity:1"
           transform="translate(367.6666,400.2611)"
           id="g84"><path
             id="path86"
             style="fill:#f5f5f5;fill-opacity:1;fill-rule:nonzero;stroke:none"
             d="m 0,0 c 0.199,-3.638 0.766,-7.235 1.207,-10.835 l 29.215,22.993 c -0.052,3.82 -0.18,7.637 -0.339,11.454 -10e-4,0.027 0.011,0.047 0.011,0.073 z" /></g><g
           style="fill:#f5f5f5;fill-opacity:1"
           transform="translate(359.2095,399.4379)"
           id="g88"><path
             id="path90"
             style="fill:#f5f5f5;fill-opacity:1;fill-rule:nonzero;stroke:none"
             d="M 0,0 -25.929,21.607 -31.856,14.493 -2.761,-9.753 C -1.756,-6.534 -0.995,-3.235 0,0" /></g><g
           style="fill:#f5f5f5;fill-opacity:1"
           transform="translate(469.7989,447.7695)"
           id="g92"><path
             id="path94"
             style="fill:#f5f5f5;fill-opacity:1;fill-rule:nonzero;stroke:none"
             d="m 0,0 -43.491,-43.491 -15.116,18.085 c -2.28,-2.182 -4.248,-4.699 -5.901,-7.379 l 20.405,-24.412 50.65,50.65 z" /></g><g
           style="fill:#f5f5f5;fill-opacity:1"
           transform="translate(477.1762,455.0188)"
           id="g96"><path
             id="path98"
             style="fill:#f5f5f5;fill-opacity:1;fill-rule:nonzero;stroke:none"
             d="m 0,0 c -2.901,0 -5.261,-2.36 -5.261,-5.261 0,-2.902 2.36,-5.262 5.261,-5.262 2.901,0 5.261,2.36 5.261,5.262 C 5.261,-2.36 2.901,0 0,0 m 0,-16.696 c -6.305,0 -11.435,5.13 -11.435,11.435 0,6.304 5.13,11.434 11.435,11.434 6.305,0 11.435,-5.13 11.435,-11.434 0,-6.305 -5.13,-11.435 -11.435,-11.435" /></g><g
           style="fill:#f5f5f5;fill-opacity:1"
           transform="translate(477.1762,454.2472)"
           id="g100"><path
             id="path102"
             style="fill:#f5f5f5;fill-opacity:1;fill-rule:nonzero;stroke:none"
             d="m 0,0 c -2.475,0 -4.49,-2.014 -4.49,-4.49 0,-2.475 2.015,-4.489 4.49,-4.489 2.475,0 4.49,2.014 4.49,4.489 C 4.49,-2.014 2.475,0 0,0 m 0,-10.523 c -3.327,0 -6.033,2.706 -6.033,6.033 0,3.327 2.706,6.033 6.033,6.033 3.327,0 6.033,-2.706 6.033,-6.033 0,-3.327 -2.706,-6.033 -6.033,-6.033 M 0,6.173 c -5.879,0 -10.663,-4.783 -10.663,-10.663 0,-5.879 4.784,-10.663 10.663,-10.663 5.879,0 10.663,4.784 10.663,10.663 C 10.663,1.39 5.879,6.173 0,6.173 m 0,-22.869 c -6.731,0 -12.206,5.475 -12.206,12.206 0,6.731 5.475,12.206 12.206,12.206 6.731,0 12.206,-5.475 12.206,-12.206 0,-6.731 -5.475,-12.206 -12.206,-12.206" /></g><g
           style="fill:#f5f5f5;fill-opacity:1"
           transform="translate(403.0978,425.6961)"
           id="g104"><path
             id="path106"
             style="fill:#f5f5f5;fill-opacity:1;fill-rule:nonzero;stroke:none"
             d="m 0,0 c -2.901,0 -5.261,-2.36 -5.261,-5.261 0,-2.902 2.36,-5.262 5.261,-5.262 2.901,0 5.261,2.36 5.261,5.262 C 5.261,-2.36 2.901,0 0,0 m 0,-16.696 c -6.305,0 -11.435,5.13 -11.435,11.435 0,6.304 5.13,11.434 11.435,11.434 6.305,0 11.435,-5.13 11.435,-11.434 0,-6.305 -5.13,-11.435 -11.435,-11.435" /></g><g
           style="fill:#f5f5f5;fill-opacity:1"
           transform="translate(403.0978,424.9244)"
           id="g108"><path
             id="path110"
             style="fill:#f5f5f5;fill-opacity:1;fill-rule:nonzero;stroke:none"
             d="m 0,0 c -2.475,0 -4.49,-2.014 -4.49,-4.49 0,-2.475 2.015,-4.489 4.49,-4.489 2.475,0 4.49,2.014 4.49,4.489 C 4.49,-2.014 2.475,0 0,0 m 0,-10.523 c -3.327,0 -6.033,2.706 -6.033,6.033 0,3.327 2.706,6.033 6.033,6.033 3.327,0 6.033,-2.706 6.033,-6.033 0,-3.327 -2.706,-6.033 -6.033,-6.033 M 0,6.173 c -5.879,0 -10.663,-4.783 -10.663,-10.663 0,-5.879 4.784,-10.663 10.663,-10.663 5.879,0 10.663,4.784 10.663,10.663 C 10.663,1.39 5.879,6.173 0,6.173 m 0,-22.869 c -6.731,0 -12.206,5.475 -12.206,12.206 0,6.731 5.475,12.206 12.206,12.206 6.731,0 12.206,-5.475 12.206,-12.206 0,-6.731 -5.475,-12.206 -12.206,-12.206" /></g><g
           style="fill:#f5f5f5;fill-opacity:1"
           transform="translate(948.0233,393.5711)"
           id="g112"><path
             id="path114"
             style="fill:#f5f5f5;fill-opacity:1;fill-rule:nonzero;stroke:none"
             d="m 0,0 -33.195,64.823 -33.196,-64.684 -7.188,-13.71 h 15.852 L -50.476,0 l 17.281,33.646 6.148,-12.314 0.311,-0.903 h 11.713 v -13 h -5 V 7.78 l 4.189,-7.796 7.17,-13.555 H 7.189 Z" /></g><path
           id="path116"
           style="fill:#f5f5f5;fill-opacity:1;fill-rule:nonzero;stroke:none"
           d="m 921.981,385.736 h -13.498 v 13.498 h 13.498 z" /><path
           id="path118"
           style="fill:#f5f5f5;fill-opacity:1;fill-rule:nonzero;stroke:none"
           d="m 954.187,402.727 h -10.775 v 10.775 h 10.775 z" /><path
           id="path120"
           style="fill:#f5f5f5;fill-opacity:1;fill-rule:nonzero;stroke:none"
           d="m 944.004,418.83 h -8.2 v 8.91 h 8.2 z" /><path
           id="path122"
           style="fill:#f5f5f5;fill-opacity:1;fill-rule:nonzero;stroke:none"
           d="m 959.574,420.251 h -10.775 v 10.775 h 10.775 z" /><g
           style="fill:#f5f5f5;fill-opacity:1"
           transform="translate(362.972,399.46)"
           id="g124"><path
             id="path126"
             style="fill:#f5f5f5;fill-opacity:1;fill-rule:nonzero;stroke:none"
             d="m 0,0 c -2.901,0 -5.261,-2.36 -5.261,-5.261 0,-2.902 2.36,-5.262 5.261,-5.262 2.901,0 5.261,2.36 5.261,5.262 C 5.261,-2.36 2.901,0 0,0 m 0,-16.696 c -6.305,0 -11.435,5.13 -11.435,11.435 0,6.304 5.13,11.434 11.435,11.434 6.305,0 11.435,-5.13 11.435,-11.434 0,-6.305 -5.13,-11.435 -11.435,-11.435" /></g><g
           style="fill:#f5f5f5;fill-opacity:1"
           transform="translate(362.972,398.6883)"
           id="g128"><path
             id="path130"
             style="fill:#f5f5f5;fill-opacity:1;fill-rule:nonzero;stroke:none"
             d="m 0,0 c -2.475,0 -4.49,-2.014 -4.49,-4.49 0,-2.476 2.015,-4.489 4.49,-4.489 2.475,0 4.49,2.013 4.49,4.489 C 4.49,-2.014 2.475,0 0,0 m 0,-10.523 c -3.327,0 -6.033,2.707 -6.033,6.033 0,3.326 2.706,6.033 6.033,6.033 3.327,0 6.033,-2.707 6.033,-6.033 0,-3.326 -2.706,-6.033 -6.033,-6.033 M 0,6.173 c -5.879,0 -10.663,-4.783 -10.663,-10.663 0,-5.879 4.784,-10.663 10.663,-10.663 5.879,0 10.663,4.784 10.663,10.663 C 10.663,1.39 5.879,6.173 0,6.173 m 0,-22.869 c -6.731,0 -12.206,5.475 -12.206,12.206 0,6.731 5.475,12.206 12.206,12.206 6.731,0 12.206,-5.475 12.206,-12.206 0,-6.731 -5.475,-12.206 -12.206,-12.206" /></g></g></g></g></svg>
